<svg xmlns="http://www.w3.org/2000/svg" viewBox="0 0 405.23209 113.98791">
  <defs>
    <style>
      .cls-1 {
        fill: none;
      }

      .cls-2 {
        fill: #dc001a;
      }

      .cls-3 {
        fill: #f6504b;
      }
    </style>
  </defs>
  <g id="Livello_2" data-name="Livello 2">
    <g id="Livello_1-2" data-name="Livello 1">
      <g>
        <rect class="cls-1" width="405.23209" height="113.98791"/>
        <g>
          <polygon class="cls-2" points="79.793 25.096 82.957 34.902 86.929 30.606 86.929 23.174 79.504 20.233 73.361 25.149 79.793 25.096"/>
          <path class="cls-2" d="M81.00481,40.22043h-.00009L77.27355,28.65406H67.23705l2.60223,8.17377L56.91276,36.82V93.75527L90.324,65.985ZM66.54223,58.10934V52.79713l7.4726-2.98855,1.091,3.36005Z"/>
          <polygon class="cls-3" points="34.029 25.096 30.866 34.902 26.894 30.606 26.894 23.174 34.319 20.233 40.462 25.149 34.029 25.096"/>
          <path class="cls-3" d="M43.98356,36.82783l2.60223-8.17377H36.5493L32.81812,40.22043H32.818L23.49889,65.985,56.91008,93.75527V36.82Zm3.29705,21.28151L38.717,53.16863l1.091-3.36005,7.4726,2.98855Z"/>
        </g>
        <g>
          <path class="cls-3" d="M110.92376,40.65625h14.63411a12.25738,12.25738,0,0,1,7.94475,2.439,7.93,7.93,0,0,1,3.01854,6.49569,7.68529,7.68529,0,0,1-1.25588,4.3226,8.44748,8.44748,0,0,1-3.429,2.97037,9.93009,9.93009,0,0,1,4.37077,3.139,7.63777,7.63777,0,0,1,1.61815,4.82987,8.59929,8.59929,0,0,1-3.18763,6.97887,12.85162,12.85162,0,0,1-8.452,2.6322H110.92376Zm14.3441,4.29852H115.995V55.00035h9.27288a7.06181,7.06181,0,0,0,4.53986-1.35222,4.83038,4.83038,0,0,0,0-7.34114A7.06472,7.06472,0,0,0,125.26786,44.95477Zm.53136,25.21055a7.756,7.756,0,0,0,5.023-1.52132,5.23273,5.23273,0,0,0,0-8.04108,7.6764,7.6764,0,0,0-5.023-1.5459H115.995v11.1083Z"/>
          <path class="cls-3" d="M144.32167,74.46383V40.65625h5.07121V74.46383Z"/>
          <path class="cls-3" d="M190.49678,57.99481a17.55836,17.55836,0,0,1-1.28,6.737,16.664,16.664,0,0,1-3.50123,5.38531,16.1525,16.1525,0,0,1-5.28847,3.574,16.67214,16.67214,0,0,1-6.59252,1.30405A17.74343,17.74343,0,0,1,166.928,73.643a17.09628,17.09628,0,0,1-9.34513-9.2488,17.64979,17.64979,0,0,1,0-13.66824,17.51658,17.51658,0,0,1,3.719-5.5539,17.12737,17.12737,0,0,1,5.578-3.6949,17.73427,17.73427,0,0,1,6.90662-1.35222,18.90714,18.90714,0,0,1,7.58248,1.54539,17.08235,17.08235,0,0,1,6.03708,4.29852l-3.47764,3.38081a12.79546,12.79546,0,0,0-4.56394-3.35673,13.66933,13.66933,0,0,0-5.578-1.18313,12.50241,12.50241,0,0,0-4.90212.96587A11.89375,11.89375,0,0,0,164.924,48.456a12.37676,12.37676,0,0,0-2.6081,4.05717,13.40594,13.40594,0,0,0-.94179,5.04663,13.09991,13.09991,0,0,0,.96587,5.04713,12.68458,12.68458,0,0,0,2.63219,4.05717,12.18452,12.18452,0,0,0,3.96033,2.70444,12.35023,12.35023,0,0,0,4.95029.99A11.321,11.321,0,0,0,181.538,67.63a10.41191,10.41191,0,0,0,3.64623-6.93071h-11.2533V56.25574h16.56586Z"/>
          <path class="cls-3" d="M208.39176,74.46383V40.65625h11.92917a19.20056,19.20056,0,0,1,7.07571,1.28,17.49637,17.49637,0,0,1,5.65074,3.52532,15.96445,15.96445,0,0,1,3.74307,5.3853,16.92382,16.92382,0,0,1,1.35222,6.76162,16.57716,16.57716,0,0,1-1.35222,6.71294,16.26283,16.26283,0,0,1-3.719,5.33715,17.1507,17.1507,0,0,1-5.65074,3.52531,19.38165,19.38165,0,0,1-7.09979,1.28Zm12.026-29.26772H213.463V69.924h6.95479a12.96517,12.96517,0,0,0,4.9262-.94179,11.88749,11.88749,0,0,0,3.98442-2.60811,12.40587,12.40587,0,0,0,2.63219-3.91216,12.15524,12.15524,0,0,0,.96587-4.85345,12.50422,12.50422,0,0,0-.96587-4.90212,12.27164,12.27164,0,0,0-2.63219-3.96033A11.88749,11.88749,0,0,0,225.344,46.1379,12.96536,12.96536,0,0,0,220.41777,45.19611Z"/>
          <path class="cls-3" d="M244.7343,74.46383V40.65625h5.07121V74.46383Z"/>
          <path class="cls-3" d="M257.23679,74.46383V40.65625H272.885a11.3307,11.3307,0,0,1,7.99291,2.82537,9.49321,9.49321,0,0,1,3.06721,7.31706,9.32792,9.32792,0,0,1-3.09129,7.2443,11.4106,11.4106,0,0,1-7.96883,2.80128H262.308V74.46383Zm15.1168-29.36456H262.308V56.54575h10.04559a6.81976,6.81976,0,0,0,4.709-1.56948,5.31915,5.31915,0,0,0,1.76315-4.17759,5.24582,5.24582,0,0,0-1.76315-4.15351A6.88989,6.88989,0,0,0,272.35359,45.09927Z"/>
          <path class="cls-3" d="M289.68645,74.46383V40.65625H305.3346a11.33073,11.33073,0,0,1,7.99292,2.82537,9.49321,9.49321,0,0,1,3.06721,7.31706,9.32789,9.32789,0,0,1-3.0913,7.2443,11.41057,11.41057,0,0,1-7.96883,2.80128H294.75766V74.46383Zm15.1168-29.36456H294.75766V56.54575h10.04559a6.81972,6.81972,0,0,0,4.70894-1.56948,5.31913,5.31913,0,0,0,1.76316-4.17759,5.24579,5.24579,0,0,0-1.76316-4.15351A6.88984,6.88984,0,0,0,304.80325,45.09927Z"/>
          <path class="cls-3" d="M322.26753,74.46383V40.65625h24.921v4.443H327.33874V55.24169h13.04v4.34668h-13.04V70.02031h20.043v4.44352Z"/>
          <path class="cls-3" d="M353.91161,74.46383V40.65625h15.35864a11.771,11.771,0,0,1,8.13792,2.7772,9.22026,9.22026,0,0,1,3.11488,7.22022,9.16288,9.16288,0,0,1-1.88358,5.77116,10.354,10.354,0,0,1-5.07121,3.50173l7.53431,14.53727h-5.60206l-7.00346-13.86091h-9.51423V74.46383Zm14.92362-29.36456h-9.85241V56.40074h9.85241a7.00384,7.00384,0,0,0,4.75712-1.56948,5.53017,5.53017,0,0,0,0-8.18609A7.07686,7.07686,0,0,0,368.83523,45.09927Z"/>
        </g>
      </g>
    </g>
  </g>
</svg>
